<?xml version="1.0" encoding="UTF-8"?>
<!DOCTYPE svg PUBLIC "-//W3C//DTD SVG 1.1//EN" "http://www.w3.org/Graphics/SVG/1.1/DTD/svg11.dtd">
<!-- Creator: CorelDRAW -->
<svg xmlns="http://www.w3.org/2000/svg" xml:space="preserve" width="101.01mm" height="91.2011mm" version="1.1" style="shape-rendering:geometricPrecision; text-rendering:geometricPrecision; image-rendering:optimizeQuality; fill-rule:evenodd; clip-rule:evenodd"
viewBox="0 0 9586.31 8655.43"
 xmlns:xlink="http://www.w3.org/1999/xlink"
 xmlns:xodm="http://www.corel.com/coreldraw/odm/2003">
 <defs>
  <style type="text/css">
   <![CDATA[
    .fil0 {fill:#2B2A29;fill-rule:nonzero}
   ]]>
  </style>
 </defs>
 <g id="Layer_x0020_1">
  <metadata id="CorelCorpID_0Corel-Layer"/>
  <path class="fil0" d="M839.11 3848.85c9.35,84.34 -12.77,154.45 -66.32,210.39 -53.51,55.91 -123.69,88.68 -210.39,98.3 -84.3,9.34 -158.71,-7.37 -223.22,-50.23 -64.51,-42.87 -101.41,-106.43 -110.75,-190.73l-226.44 -2041.75c-9.07,-81.89 13.13,-150.85 66.67,-206.77 53.55,-55.95 122.51,-88.56 206.81,-97.94 86.71,-9.58 162.22,5.8 226.45,46.26 64.22,40.41 101.13,104.02 110.75,190.72l226.44 2041.75zm2002.51 -2771.12c-61.51,45.62 -148.37,32.72 -194,-28.78 -45.62,-61.51 -32.72,-148.37 28.78,-194 367.22,-273.48 778.82,-490.11 1221.69,-636.63 427.93,-141.59 885.35,-218.32 1360.48,-218.32 1195,0 2276.99,484.43 3060.13,1267.59 783.16,783.15 1267.59,1865.14 1267.59,3060.13 0,1195 -484.43,2276.99 -1267.59,3060.13 -783.15,783.16 -1865.14,1267.59 -3060.13,1267.59 -1028.48,0 -1973.49,-359.17 -2716.35,-958.97 -757.05,-611.28 -1303.97,-1472.62 -1515.13,-2458.28 -15.89,-74.99 32.06,-148.73 107.05,-164.62 74.99,-15.89 148.74,32.06 164.62,107.05 197.51,922.07 709.14,1727.81 1417.34,2299.62 694.83,561.04 1579.31,896.98 2542.47,896.98 1118.23,0 2130.7,-453.28 2863.46,-1186.05 732.76,-732.76 1186.05,-1745.24 1186.05,-2863.46 0,-1118.26 -453.28,-2130.7 -1186.05,-2863.46 -732.76,-732.76 -1745.24,-1186.05 -2863.46,-1186.05 -445.05,0 -873.25,71.77 -1273.5,204.21 -415.39,137.41 -800.62,339.97 -1143.46,595.31zm1724.85 4971.65c19.17,172.5 -52.05,267.76 -213.51,285.66 -99.56,11.04 -182.45,-24.56 -247.54,-106.93 -44.71,-80.13 -90.09,-161.31 -136.19,-243.52 -46.06,-82.25 -97.83,-120.15 -155.35,-113.76l-647.56 71.81c-61.98,6.9 -100.78,40.26 -116.64,99.72l-97.47 387.55c-10.52,41.48 -51.46,66.17 -122.23,74.01 -39.83,4.42 -63.41,-26.57 -70.78,-92.89l628.31 -2330.21c18.93,-71.53 44.99,-109.1 78.19,-112.81 33.16,-3.66 66.83,27.32 101.02,92.94l957 1845.34c22.86,44.52 37.1,92.19 42.74,143.1zm-787.37 -406.44c-1.74,-15.54 -6.9,-31.75 -14.94,-48.74l-335.71 -654.73c-14.47,-29.72 -28.95,-43.76 -44.43,-42.07 -14.91,1.66 -27.01,18.7 -36.79,51.66l-195.3 712.45c-4.14,18.37 -5,35.85 -3.26,51.34 4.65,42.03 36.82,59.7 96.56,53.07l451.27 -50.03c59.7,-6.62 87.26,-30.92 82.61,-72.94zm2367.87 150.54c13.01,117.23 -71.05,217.22 -252.23,300.06 -130.04,59.18 -270.21,97.12 -420.68,113.79 21.85,196.91 29.46,315.83 22.8,356.88 -20.43,118.68 -102.53,186.03 -246.28,201.96 -77.44,8.6 -145.77,-6.79 -204.99,-46.13 -59.23,-39.31 -92.98,-96.6 -101.34,-171.8l-164.85 -1486.5c-18.9,-170.34 31.66,-310.27 151.6,-419.89 105.71,-96.8 247.03,-155 424.03,-174.63 152.64,-16.91 294.82,3.11 426.51,60.17 157.52,67.62 244.15,172.23 259.84,313.78l105.59 952.3zm-582.45 -133.59l-69.91 -630.41c-24.3,-218.98 -124.88,-318.66 -301.87,-299.07 -88.48,9.82 -153.39,50.59 -194.67,122.35 -33.2,64.16 -44.63,142.66 -34.34,235.59l69.91 630.41c10.33,92.89 39.07,170.34 86.23,232.28 57.21,72.03 130.08,103.14 218.59,93.33 88.48,-9.82 152.75,-56.15 192.82,-138.95 32.45,-70.78 43.52,-152.64 33.24,-245.53zm1999.28 -23.54c13.01,117.22 -71.08,217.26 -252.23,300.06 -130.04,59.18 -270.21,97.11 -420.68,113.79 21.85,196.91 29.42,315.83 22.8,356.88 -20.43,118.68 -102.53,186.02 -246.28,201.96 -77.44,8.59 -145.77,-6.79 -204.99,-46.13 -59.23,-39.31 -92.98,-96.6 -101.34,-171.8l-164.85 -1486.5c-18.9,-170.3 31.66,-310.27 151.6,-419.85 105.71,-96.84 247.03,-155.04 423.99,-174.67 152.67,-16.91 294.86,3.15 426.51,60.17 157.56,67.62 244.19,172.22 259.88,313.78l105.59 952.3zm-582.45 -133.59l-69.91 -630.41c-24.3,-218.99 -124.91,-318.67 -301.87,-299.04 -88.48,9.78 -153.39,50.56 -194.67,122.35 -33.2,64.12 -44.63,142.62 -34.34,235.55l69.91 630.41c10.29,92.93 39.03,170.34 86.23,232.28 57.21,72.03 130.08,103.14 218.56,93.33 88.52,-9.82 152.79,-56.11 192.86,-138.95 32.45,-70.78 43.52,-152.6 33.24,-245.53zm-4587.14 -1947.08c11.52,103.54 -2.84,194.19 -43.01,271.79 -45.78,92.85 -116.88,144.66 -213.24,155.35 -96.32,10.69 -178.26,-24.12 -245.68,-104.44 -61.56,-71.22 -97.83,-156.22 -108.79,-254.99l-100.58 -907.04c-9.35,-84.34 -44.32,-152.36 -104.93,-204.17 -60.64,-51.81 -131.89,-73.18 -213.78,-64.07 -86.71,9.62 -153.46,45.66 -200.23,108.12 -46.68,62.49 -65.22,137.14 -55.6,223.84 5.32,48.22 83.99,125.43 236.03,231.73 152,106.3 233.62,210.08 244.85,311.21l35.26 318.01c10.96,98.77 -4.57,189.5 -46.61,272.22 -48.22,93.14 -119.31,144.95 -213.28,155.36 -96.37,10.69 -178.26,-24.17 -245.68,-104.45 -58.87,-69.08 -93.93,-154.21 -105.16,-255.39l-111.82 -1008.21c-17.07,-154.17 48.81,-285.86 197.66,-395.04 126.38,-92.08 272.65,-147.31 438.89,-165.72 166.2,-18.46 321.08,3.39 464.52,65.53 169.16,73.93 262.29,187.96 279.4,342.12l111.78 1008.26zm1750.09 -1404.95c2.95,26.49 1.61,47.39 -3.99,62.65l-600.6 1544.5c-19.04,48.42 -47.82,74.79 -86.34,79.06 -40.97,4.57 -76.02,-14.75 -105.2,-57.84l-925.18 -1349.67c-5.91,-9.11 -10.56,-29.3 -14.04,-60.61 -9.9,-89.15 11.2,-168.29 63.88,-237.57 52.05,-69.2 122.08,-108.63 209.41,-118.33 123.45,-13.69 223.29,34.38 298.92,144.27l362.32 534.78c46.84,71.02 111.94,102.17 195.65,92.9 67.42,-7.5 120.5,-34.7 160.4,-81.82 39.27,-47.04 55.52,-104.29 48.03,-171.76 -1.62,-14.47 -32.53,-56.78 -92.74,-126.88 -60.17,-70.19 -93.25,-131.74 -99.13,-184.77 -9.35,-84.3 9.26,-158.31 55.83,-221.99 46.61,-63.68 112.05,-100.23 196.36,-109.58 79.53,-8.83 153.26,12.9 221.24,65.1 67.97,52.2 106.38,118.09 115.18,197.54zm688.79 -782.41c9.35,84.34 -12.74,159.92 -66.28,226.83 -53.58,66.92 -122.5,105.04 -206.85,114.39 -84.27,9.35 -159.3,-12.77 -224.99,-66.48 -65.68,-53.7 -103.22,-122.7 -112.57,-207.01 -9.35,-84.29 12.19,-159.25 64.67,-224.82 52.47,-65.58 120.89,-103.03 205.18,-112.38 86.71,-9.62 162.81,11.2 228.27,62.49 65.41,51.26 102.94,120.26 112.57,206.97zm223.22 2012.85c9.34,84.33 -12.74,154.44 -66.28,210.39 -53.55,55.91 -123.69,88.68 -210.44,98.29 -84.29,9.35 -158.7,-7.37 -223.21,-50.23 -64.51,-42.86 -101.42,-106.38 -110.76,-190.72l-148.29 -1337.06c-9.35,-84.34 12.77,-154.49 66.32,-210.39 53.51,-55.96 122.47,-88.57 206.77,-97.9 86.71,-9.62 162.33,6.98 226.84,49.8 64.51,42.82 101.41,106.43 110.75,190.76l148.3 1337.07zm965.15 -1621.51c8.29,74.68 -46.56,118.56 -164.62,131.65l153.51 1384.07c9.34,84.33 -12.78,154.4 -66.33,210.39 -53.5,55.91 -123.69,88.68 -210.39,98.29 -84.29,9.35 -158.7,-7.37 -223.21,-50.23 -64.51,-42.86 -101.45,-106.42 -110.8,-190.72l-153.5 -1384.06c-118.05,13.09 -181.22,-17.71 -189.5,-92.39 -6.11,-55.4 15.3,-93.17 63.68,-113.16 58.82,-13.85 118.88,-27.8 180.11,-41.92 84.27,-26.41 151.49,-68.61 201.76,-126.65 50.28,-57.96 77.68,-140.91 82.77,-248.79 -1.61,-80.28 -3.31,-161.78 -5.16,-244.5 1.61,-73.34 24.72,-112.5 70.5,-117.54 69.24,-7.7 116.13,101.73 141.24,328.21 4.3,38.52 10.96,98.73 20.03,180.67 9.11,81.89 15.77,142.1 20.07,180.66 118,-13.09 181.33,18.89 189.85,96.02zm1745.99 1097.72c18.14,163.8 -45.86,301.36 -192.02,412.71 -123.69,94.16 -272.3,150.9 -445.75,170.14 -166.2,18.46 -321.08,-3.43 -464.52,-65.53 -169.11,-73.93 -262.29,-187.96 -279.36,-342.17l-100.19 -903.41c-17.35,-156.57 48.26,-290.71 196.83,-402.26 126.06,-94.48 273.45,-151.05 442.09,-169.75 185.52,-20.58 343.56,-2.76 474.18,53.51 161.39,69.87 251.72,191.55 270.96,365.04 16.84,151.72 -16.01,284.64 -98.46,398.63 -82.48,114.04 -205.62,180.12 -369.46,198.29 -33.75,3.75 -82.8,6.75 -147.15,9.03 -64.38,2.24 -112.22,5.08 -143.56,8.55 -115.64,12.81 -199.67,52.01 -252.23,116.99 -52.44,65.57 -73.54,144.75 -63.21,238.12 9.3,83.71 46.68,146.01 112.25,187.52 57.73,36.87 130,50.79 216.71,41.21 101.22,-11.24 171.36,-60.48 210.52,-147.15 27.64,-80.48 55.28,-160.95 82.99,-241.47 41.52,-86.9 116.56,-136.11 224.95,-148.14 79.53,-8.8 151.29,6.39 215.44,45.62 64.11,39.23 100.43,97.43 108.98,174.51zm-303.76 -858.9c-8.05,-72.31 -43.49,-133.59 -106.38,-183.94 -62.89,-50.31 -130.48,-71.48 -202.79,-63.48 -96.33,10.69 -165.13,61 -206.37,150.94 -38.01,74.92 -51.42,163 -40.18,264.18l23.62 213.19 296.31 -32.85c84.34,-9.34 147.11,-48.02 188.36,-115.99 41.2,-67.98 57.05,-145.35 47.43,-232.05z"/>
 </g>
</svg>
